<svg xmlns="http://www.w3.org/2000/svg"  viewBox="0 0 64 64" width="64px" height="64px"><linearGradient id="hhTSV4xZoVRcbRIa9IzgXa" x1="31.445" x2="31.445" y1="4.962" y2="58" gradientUnits="userSpaceOnUse"><stop offset="0" stop-color="#1a6dff"/><stop offset="1" stop-color="#c822ff"/></linearGradient><path fill="url(#hhTSV4xZoVRcbRIa9IzgXa)" d="M48.98,24.804c-0.872-4.361-2.431-7.177-4.631-8.369c-0.622-0.337-1.236-0.5-1.794-0.562 c-0.956-3.901-3.969-10.139-13.479-10.87c-3.273-0.255-6.126,0.687-8.48,2.79c-6.052,5.407-7.356,17.465-7.596,24.172 C12.797,37.668,12.998,54.839,13,55c0,1.654,1.346,3,3,3h9V47c0-1.654,1.346-3,3-3h3c1.103,0,2,0.897,2,2v12h13v-1 c0-4.808-0.273-10.179-0.655-15.338C51.078,39.634,50.432,32.062,48.98,24.804z M35,56V46c0-2.206-1.794-4-4-4h-3 c-2.757,0-5,2.243-5,5v9h-7c-0.552,0-1-0.449-1-1.012c-0.002-0.172-0.202-17.295-0.001-22.953 c0.229-6.389,1.432-17.839,6.93-22.752c1.959-1.75,4.249-2.499,6.994-2.287C40.92,7.92,41.002,18.541,41,18.99l-0.001,0.073 l0.01,0.072C41.038,19.35,43.877,40.343,43.996,56H35z M45.185,39.585c-0.85-10.604-2.075-19.833-2.186-20.661 c-0.004-0.146-0.018-0.473-0.067-0.93c0.165,0.056,0.334,0.125,0.51,0.225c1.121,0.63,2.652,2.352,3.577,6.978 C49.044,35.318,47.556,38.476,45.185,39.585z"/><linearGradient id="hhTSV4xZoVRcbRIa9IzgXb" x1="28" x2="28" y1="14.778" y2="28.177" gradientUnits="userSpaceOnUse"><stop offset="0" stop-color="#6dc7ff"/><stop offset="1" stop-color="#e6abff"/></linearGradient><path fill="url(#hhTSV4xZoVRcbRIa9IzgXb)" d="M25,15h6c3.314,0,6,2.686,6,6v3c0,1.657-1.343,3-3,3H23c-2.209,0-4-1.791-4-4v-2 C19,17.686,21.686,15,25,15z"/></svg>